<?xml version="1.0" encoding="UTF-8"?>
<svg width="222px" height="218px" viewBox="0 0 222 218" version="1.1" xmlns="http://www.w3.org/2000/svg" xmlns:xlink="http://www.w3.org/1999/xlink">
    <!-- Generator: Sketch 56.2 (81672) - https://sketch.com -->
    <title>malwaremagnified</title>
    <desc>Created with Sketch.</desc>
    <g id="mid-level-feature-pages" stroke="none" stroke-width="1" fill="none" fill-rule="evenodd">
        <g id="midlevel_malware" transform="translate(-172.000000, -1534.000000)">
            <g id="Group-3-Copy-2" transform="translate(0.000000, 1414.000000)">
                <g id="Group-2">
                    <g id="malwaremagnified" transform="translate(172.000000, 120.000000)">
                        <g id="Computer" transform="translate(0.000000, 53.001100)">
                            <rect id="Rectangle" fill="#333333" fill-rule="nonzero" x="73.8912" y="144.98319" width="48.6192" height="15.0225743"></rect>
                            <path d="M3.3936,0.122310231 L192.96,0.122310231 C194.827067,0.135393712 196.337029,1.64531655 196.3488,3.5110231 L196.3488,144.853685 C196.331645,146.70709 194.814776,148.19601 192.96,148.180214 L3.3936,148.180214 C2.50204751,148.188991 1.64349156,147.843478 1.00698931,147.219588 C0.37048707,146.595697 0.00823415711,145.744591 1.55431223e-15,144.853685 L1.55431223e-15,3.5110231 C0.0130931961,1.64400086 1.52519867,0.134072971 3.3936,0.122310231 Z" id="Path" fill="#666666"></path>
                            <path d="M8.3808,8.63366337 L187.9584,8.63366337 C189.050921,8.64019605 189.935341,9.52289861 189.9432,10.6146095 L189.9432,123.18319 C189.936636,124.275443 189.051461,125.158898 187.9584,125.164136 L8.3808,125.164136 C7.28813409,125.158887 6.40365329,124.275055 6.3984,123.18319 L6.3984,10.6050165 C6.4101688,9.51744153 7.2923825,8.64014394 8.3808,8.63366337 Z" id="Path" fill="#03BCFC"></path>
                            <path d="M63.336,156.871265 L133.0032,156.871265 C134.834999,156.887011 136.313497,158.371908 136.32,160.20242 L136.32,161.480682 C136.287964,163.30303 134.817286,164.77263 132.9936,164.804642 L63.336,164.804642 C61.5077897,164.775184 60.0321128,163.302711 60,161.475886 L60,160.20242 C60.0169282,158.372376 61.4974123,156.892977 63.3288,156.876062 L63.336,156.871265 Z" id="Path" fill="#666666"></path>
                            <path d="M98.2008,138.654269 C99.9060889,138.637001 101.277915,137.247924 101.272617,135.543807 C101.267287,133.83969 99.8868245,132.459184 98.1814612,132.452545 C96.4760979,132.445955 95.0849522,133.815711 95.0663545,135.519736 C95.0619062,136.352009 95.3906161,137.151529 95.9793373,137.740268 C96.5680584,138.329008 97.3679127,138.658089 98.2008,138.654269 Z" id="Path" fill="#999999"></path>
                        </g>
                        <g id="Paper_Script" transform="translate(29.280000, 0.000000)">
                            <polygon id="Path" fill="#FDFDFD" points="0.144 0 109.9872 0 133.4664 24.1646645 133.4664 24.1646645 133.4664 178.165237 0.144 178.165237"></polygon>
                            <polygon id="Path" fill="#B3B3B3" points="133.4664 24.1646645 109.9872 24.1646645 109.9872 0"></polygon>
                        </g>
                        <g id="Script" transform="translate(45.360000, 33.575358)" fill-rule="nonzero">
                            <rect id="Rectangle" fill="#808080" x="0.12" y="0.115115512" width="80.8656" height="4.79647965"></rect>
                            <rect id="Rectangle" fill="#808080" x="47.2728" y="9.38431243" width="47.916" height="4.09139714"></rect>
                            <rect id="Rectangle" fill="#808080" x="2.9352" y="18.0131793" width="47.9184" height="4.02664466"></rect>
                            <rect id="Rectangle" fill="#808080" x="2.9352" y="35.8488889" width="47.9184" height="4.09139714"></rect>
                            <rect id="Rectangle" fill="#808080" x="2.9352" y="43.010033" width="47.9184" height="4.09139714"></rect>
                            <rect id="Rectangle" fill="#808080" x="61.4736" y="18.0131793" width="25.8432" height="4.02664466"></rect>
                            <rect id="Rectangle" fill="#808080" x="6.264" y="9.38431243" width="13.8792" height="4.09139714"></rect>
                            <rect id="Rectangle" fill="#CE0707" x="26.0952" y="9.38431243" width="13.8816" height="4.09139714"></rect>
                            <rect id="Rectangle" fill="#CE0707" x="89.748" y="0.115115512" width="12.348" height="4.79647965"></rect>
                            <rect id="Rectangle" fill="#808080" x="2.9352" y="53.0466667" width="15.2256" height="4.0290429"></rect>
                            <rect id="Rectangle" fill="#CE0707" x="23.3448" y="53.0466667" width="15.2256" height="4.0290429"></rect>
                            <rect id="Rectangle" fill="#808080" x="0.12" y="73.5036524" width="80.8656" height="4.72932893"></rect>
                            <rect id="Rectangle" fill="#808080" x="2.9352" y="91.3393619" width="47.9184" height="4.0889989"></rect>
                            <rect id="Rectangle" fill="#808080" x="2.9352" y="109.237426" width="47.9184" height="4.0290429"></rect>
                            <rect id="Rectangle" fill="#808080" x="2.9352" y="116.39857" width="47.9184" height="4.0290429"></rect>
                            <rect id="Rectangle" fill="#808080" x="6.264" y="82.7728493" width="13.8792" height="4.09139714"></rect>
                            <rect id="Rectangle" fill="#808080" x="2.9352" y="126.435204" width="15.2256" height="4.0290429"></rect>
                            <rect id="Rectangle" fill="#CE0707" x="23.3448" y="126.435204" width="15.2256" height="4.0290429"></rect>
                            <rect id="Rectangle" fill="#808080" x="45.3504" y="126.435204" width="24.7608" height="4.0290429"></rect>
                        </g>
                        <g id="Loop" transform="translate(67.680000, 59.716172)">
                            <path d="M81.9792,75.3838724 L88.32,64.5126513 C89.1501963,63.0701795 90.5204342,62.0168829 92.1286021,61.5849935 C93.7367699,61.1531041 95.4508069,61.3780882 96.8928,62.210341 L150.9432,93.4114411 C152.386079,94.2410213 153.43968,95.6098177 153.871852,97.2162273 C154.304024,98.8226368 154.079301,100.534836 153.2472,101.975556 L146.9136,112.909131 C146.082494,114.350628 144.712271,115.403079 143.104481,115.834866 C141.496691,116.266654 139.783092,116.042395 138.3408,115.211441 L84.2832,84.0127393 C81.2718133,82.2562037 80.2429309,78.4007245 81.9792,75.3790759 L81.9792,75.3838724 Z" id="Path" fill="#333333"></path>
                            <path d="M88.7616,69.7576018 L91.32,65.2824862 C92.0346639,64.0573188 93.6000649,63.6305103 94.8384,64.3231903 L149.28,95.7761056 C151.023032,96.7878021 151.623108,99.015021 150.624,100.764444 L147.2976,106.52022 L89.6568,73.2734213 C89.0626098,72.9339857 88.6317856,72.3680385 88.4630199,71.7052258 C88.2942541,71.0424131 88.4020089,70.3395336 88.7616,69.7576018 Z" id="Path" fill="#666666"></path>
                            <path d="M6.8088,24.7522332 C20.436,1.22550055 50.5056,-6.82778878 74.0448,6.78941694 C97.5888,20.3394719 105.6504,50.4517712 92.088,73.9785039 C78.4584,97.5028383 48.3936,105.558526 24.8496,91.9413201 C1.308,78.3888669 -6.756,48.2789659 6.8088,24.7522332 Z" id="Path" fill="#333333"></path>
                            <path d="M13.7808,28.7788779 C25.1688,9.08932893 50.3736,2.31430143 70.08,13.6939494 C89.7864,25.0735974 96.5016,50.259912 85.1136,69.9494609 C73.7256,89.6390099 48.5208,96.4092409 28.8168,85.0343894 C9.1128,73.659538 2.4,48.4708251 13.7808,28.7788779 Z" id="Path" fill="#FDFDFD"></path>
                        </g>
                        <g id="Bug" transform="translate(89.520000, 82.259626)">
                            <path d="M17.9784,0.738657866 C21.9529344,-0.927417444 26.5276566,0.928997045 28.2144,4.89240924 C28.7882227,6.22050555 28.9906151,7.67931387 28.8,9.11331133 C24.0719265,8.63253829 19.4228052,10.5824006 16.4544,14.2911111 C15.278203,13.4837664 14.3632314,12.3511007 13.8216,11.0319032 C12.9970496,9.11715247 12.9723452,6.95254847 13.752981,5.01950476 C14.5336168,3.08646105 16.0548665,1.54525608 17.9784,0.738657866 L17.9784,0.738657866 Z" id="Path" fill="#4D4D4D"></path>
                            <path d="M4.9944,30.529593 L3.7776,27.7812101 L0.132,19.0851925 L2.88,17.9364356 L6.5256,26.6324532 L18.1056,21.7064686 L19.3248,24.4620462 L7.7448,29.3208801 L4.9944,30.529593 Z M54.1944,25.7978658 L55.3416,28.5390539 L59.052,37.2326733 L56.2992,38.3814301 L52.656,29.699802 L41.076,34.6209901 L39.8592,31.8726073 L51.4392,26.9490209 L54.1944,25.7978658 Z M57.396,14.2287569 L36.2208,23.1789879 L37.3704,25.9273707 L58.548,16.9771397 L57.396,14.2287569 Z M48.3768,12.1183058 L47.2224,9.36992299 L43.5768,0.67630363 L40.8264,1.82506051 L44.472,10.5186799 L32.88,15.4422662 L34.0344,18.1930473 L45.612,13.2670627 L48.3768,12.1183058 Z M10.8144,44.2091529 L11.9688,46.9575358 L15.612,55.6535534 L18.3624,54.440044 L14.7168,45.8063806 L26.2992,40.8851925 L25.08,38.1320132 L13.5024,43.0532013 L10.8144,44.2091529 Z M0.2544,38.4533773 L21.432,29.4383938 L22.5816,32.1891749 L1.404,41.2017602 L0.2544,38.4533773 Z" id="Shape" fill="#4D4D4D"></path>
                            <path d="M18.9408,11.0942574 L24.7008,8.66723872 C27.1570771,7.64718134 29.9780135,8.78540588 31.0368,11.2237624 L41.7192,36.4052805 C42.7384294,38.8590953 41.599631,41.6762481 39.1608,42.7342354 L33.4008,45.1636524 C30.9612263,46.1886974 28.151654,45.0472406 27.12,42.6119252 L16.4376,17.430407 C15.9239896,16.2608541 15.8983885,14.9349052 16.3664704,13.7464257 C16.8345524,12.5579463 17.7576571,11.6050967 18.9312,11.0990539 L18.9408,11.0942574 Z" id="Path" fill="#1A1A1A"></path>
                            <path d="M23.4792,11.0319032 C31.032,8.54013201 39.9864,13.4613201 43.7616,22.4739054 C47.6016,31.4864906 44.976,41.3312651 37.9392,45.0413421 L23.4792,11.0319032 Z M35.9592,45.8711331 C28.4088,48.3629043 19.4544,43.4417162 15.6144,34.4291309 C11.8416,25.4141474 14.4648,15.5717712 21.5016,11.8616942 L35.9592,45.8711331 Z" id="Shape" fill="#CE0707"></path>
                            <path d="M24.7608,37.8921892 C25.7208,37.4461166 26.9352,37.9569417 27.384,38.9785919 C27.7806534,40.0022912 27.3032741,41.1568708 26.2992,41.6022662 C25.6359722,41.8768734 24.8765157,41.7770525 24.3069104,41.3404052 C23.7373052,40.9037578 23.4440878,40.1966211 23.5377104,39.4853667 C23.6313331,38.7741122 24.0975722,38.1667964 24.7608,37.8921892 L24.7608,37.8921892 Z M21.0504,20.2483388 C22.0669615,19.8437759 23.2210957,20.3212303 23.6540106,21.3254278 C24.0869255,22.3296253 23.6413335,23.495719 22.6488,23.9560176 C21.6288,24.339736 20.4096,23.8936634 20.028,22.869615 C19.8093186,22.3873034 19.794518,21.8372496 19.9869466,21.3438923 C20.1793752,20.8505351 20.5627716,20.4555659 21.0504,20.2483388 L21.0504,20.2483388 Z M17.532,27.5389879 C18.0116296,27.311368 18.5634988,27.2894302 19.0597073,27.4782586 C19.5559158,27.6670871 19.9533857,28.050289 20.16,28.5390539 C20.5695923,29.5389292 20.106218,30.6827491 19.1159119,31.1163413 C18.1256057,31.5499335 16.9699697,31.1149755 16.512,30.1362816 C16.2879335,29.6547232 16.2706673,29.1025524 16.4642097,28.6079546 C16.6577521,28.1133568 17.0452693,27.7193506 17.5368,27.5174037 L17.532,27.5389879 Z M25.0176,29.4575798 C26.0424529,29.0762124 27.1879494,29.5516689 27.6408,30.5463806 C28.0369403,31.5700579 27.5582774,32.7241304 26.5536,33.1676568 C25.5283386,33.5915004 24.3533547,33.1045645 23.9292,32.080055 C23.5050453,31.0555455 23.9923386,29.8814234 25.0176,29.4575798 L25.0176,29.4575798 Z" id="Shape" fill="#000000" fill-rule="nonzero"></path>
                            <path d="M39.9864,31.4864906 C39.4992193,31.6942441 39.1162623,32.0892527 38.9239083,32.5824187 C38.7315543,33.0755847 38.7460047,33.6253704 38.964,34.1077668 C39.164827,34.601838 39.5552148,34.9950208 40.0480534,35.1995813 C40.540892,35.4041418 41.0951674,35.4030565 41.5872,35.1965677 C42.5666278,34.7275774 43.0007691,33.5695142 42.5707665,32.5729235 C42.140764,31.5763328 41.0000378,31.0967868 39.9864,31.4864906 L39.9864,31.4864906 Z M29.8152,16.5934213 C28.8242455,17.048873 28.3746679,18.2086335 28.8,19.2122992 C29.2401683,20.2200119 30.3980792,20.7006213 31.4232,20.3011001 C32.4277048,19.8472551 32.8828449,18.6726644 32.446136,17.6611849 C32.0094271,16.6497055 30.842035,16.1746201 29.8224,16.5934213 L29.8152,16.5934213 Z M37.4952,19.0851925 C36.4699386,19.5262548 35.996614,20.7143354 36.438,21.7388449 C36.879386,22.7633544 38.0683386,23.2363318 39.0936,22.7952695 C39.5807807,22.5875161 39.9637377,22.1925075 40.1560917,21.6993415 C40.3484457,21.2061755 40.3339953,20.6563897 40.116,20.1739934 C39.732,19.149945 38.5176,18.7014741 37.4952,19.0851925 L37.4952,19.0851925 Z M33.7848,25.800264 C32.85114,26.2757537 32.4401185,27.3885462 32.8407569,28.3561502 C33.2413953,29.3237541 34.3190772,29.8210499 35.316,29.4983498 C36.3226211,29.0635172 36.7942239,27.902319 36.3755541,26.8894753 C35.9568843,25.8766316 34.8026832,25.3864914 33.7824,25.7882728 L33.7848,25.800264 Z" id="Shape" fill="#000000" fill-rule="nonzero"></path>
                        </g>
                    </g>
                </g>
            </g>
        </g>
    </g>
</svg>